<svg width="18" height="22" viewBox="0 0 18 22" fill="none" xmlns="http://www.w3.org/2000/svg">
<path d="M17.0297 5.77578C16.5884 4.75831 15.9523 3.83708 15.157 3.06406C14.3592 2.28406 13.4186 1.66498 12.3867 1.24062C11.3133 0.795312 10.1742 0.570312 9 0.570312C7.82578 0.570312 6.68672 0.795313 5.61328 1.23828C4.575 1.66719 3.64453 2.28125 2.84297 3.06172C2.04826 3.83517 1.41215 4.7563 0.970312 5.77344C0.513281 6.82812 0.28125 7.94844 0.28125 9.10156C0.28125 10.7563 0.677344 12.4039 1.45547 13.993C2.08125 15.2703 2.95547 16.5148 4.05703 17.6984C5.93906 19.7188 7.9125 20.9539 8.47266 21.2844C8.63166 21.3783 8.813 21.4277 8.99766 21.4273C9.18047 21.4273 9.36094 21.3805 9.52266 21.2844C10.0828 20.9539 12.0563 19.7188 13.9383 17.6984C15.0398 16.5172 15.9141 15.2703 16.5398 13.993C17.3227 12.4062 17.7188 10.7609 17.7188 9.10391C17.7188 7.95078 17.4867 6.83047 17.0297 5.77578ZM9 19.6297C7.45547 18.6477 1.96875 14.7594 1.96875 9.10391C1.96875 7.27813 2.69766 5.5625 4.02188 4.26875C5.35078 2.97266 7.11797 2.25781 9 2.25781C10.882 2.25781 12.6492 2.97266 13.9781 4.27109C15.3023 5.5625 16.0312 7.27813 16.0312 9.10391C16.0312 14.7594 10.5445 18.6477 9 19.6297ZM9 5.16406C6.72188 5.16406 4.875 7.01094 4.875 9.28906C4.875 11.5672 6.72188 13.4141 9 13.4141C11.2781 13.4141 13.125 11.5672 13.125 9.28906C13.125 7.01094 11.2781 5.16406 9 5.16406ZM10.8563 11.1453C10.6128 11.3895 10.3234 11.5831 10.0049 11.715C9.68631 11.847 9.3448 11.9146 9 11.9141C8.29922 11.9141 7.64062 11.6398 7.14375 11.1453C6.89959 10.9018 6.70597 10.6125 6.57404 10.2939C6.44211 9.97538 6.37446 9.63387 6.375 9.28906C6.375 8.58828 6.64922 7.92969 7.14375 7.43281C7.64062 6.93594 8.29922 6.66406 9 6.66406C9.70078 6.66406 10.3594 6.93594 10.8563 7.43281C11.3531 7.92969 11.625 8.58828 11.625 9.28906C11.625 9.98984 11.3531 10.6484 10.8563 11.1453Z" fill="#262626"/>
</svg>
