<svg width="20" height="20" viewBox="0 0 20 20" fill="none" xmlns="http://www.w3.org/2000/svg">
<path d="M18.625 0.562866H1.375C0.960156 0.562866 0.625 0.896906 0.625 1.31037V18.5029C0.625 18.9164 0.960156 19.2504 1.375 19.2504H18.625C19.0398 19.2504 19.375 18.9164 19.375 18.5029V1.31037C19.375 0.896906 19.0398 0.562866 18.625 0.562866ZM16.4594 6.01729H14.9617C13.7875 6.01729 13.5602 6.57324 13.5602 7.39082V9.19183H16.3633L15.9977 12.0113H13.5602V19.2504H10.6375V12.0137H8.19297V9.19183H10.6375V7.11284C10.6375 4.69982 12.1164 3.38468 14.2773 3.38468C15.3133 3.38468 16.2016 3.46177 16.4617 3.49681V6.01729H16.4594Z" fill="#2F3755"/>
</svg>
