<svg width="20" height="20" viewBox="0 0 20 20" fill="none" xmlns="http://www.w3.org/2000/svg">
<path d="M9.99913 6.79359C8.27882 6.79359 6.87492 8.19282 6.87492 9.9074C6.87492 11.622 8.27882 13.0212 9.99913 13.0212C11.7194 13.0212 13.1234 11.622 13.1234 9.9074C13.1234 8.19282 11.7194 6.79359 9.99913 6.79359ZM19.3694 9.9074C19.3694 8.61796 19.3812 7.3402 19.3085 6.05309C19.2359 4.55809 18.8937 3.23128 17.7968 2.13806C16.6976 1.0425 15.3687 0.70379 13.8687 0.631376C12.5749 0.558961 11.2929 0.570641 10.0015 0.570641C8.70773 0.570641 7.4257 0.558961 6.13429 0.631376C4.63429 0.70379 3.30304 1.04484 2.20617 2.13806C1.10695 3.23361 0.767103 4.55809 0.694447 6.05309C0.621791 7.34253 0.63351 8.62029 0.63351 9.9074C0.63351 11.1945 0.621791 12.4746 0.694447 13.7617C0.767103 15.2567 1.10929 16.5835 2.20617 17.6767C3.30538 18.7723 4.63429 19.111 6.13429 19.1834C7.42804 19.2558 8.71007 19.2442 10.0015 19.2442C11.2952 19.2442 12.5773 19.2558 13.8687 19.1834C15.3687 19.111 16.6999 18.77 17.7968 17.6767C18.896 16.5812 19.2359 15.2567 19.3085 13.7617C19.3835 12.4746 19.3694 11.1968 19.3694 9.9074ZM9.99913 14.6984C7.33898 14.6984 5.1921 12.5587 5.1921 9.9074C5.1921 7.2561 7.33898 5.11638 9.99913 5.11638C12.6593 5.11638 14.8062 7.2561 14.8062 9.9074C14.8062 12.5587 12.6593 14.6984 9.99913 14.6984ZM15.003 6.03908C14.3819 6.03908 13.8804 5.53919 13.8804 4.92016C13.8804 4.30114 14.3819 3.80125 15.003 3.80125C15.6241 3.80125 16.1257 4.30114 16.1257 4.92016C16.1259 5.06715 16.097 5.21274 16.0406 5.34857C15.9843 5.48441 15.9016 5.60783 15.7973 5.71177C15.693 5.81571 15.5692 5.89812 15.4329 5.95428C15.2966 6.01045 15.1505 6.03926 15.003 6.03908Z" fill="#2F3755"/>
</svg>
