<svg width="15" height="15" viewBox="0 0 15 15" fill="none" xmlns="http://www.w3.org/2000/svg">
<path d="M7.41387 9.04004C7.4241 9.05311 7.43717 9.06368 7.45209 9.07096C7.46702 9.07823 7.4834 9.082 7.5 9.082C7.5166 9.082 7.53298 9.07823 7.54791 9.07096C7.56283 9.06368 7.5759 9.05311 7.58613 9.04004L9.11738 7.10273C9.17344 7.03164 9.12285 6.92637 9.03125 6.92637H8.01816V2.2998C8.01816 2.23965 7.96895 2.19043 7.90879 2.19043H7.08848C7.02832 2.19043 6.9791 2.23965 6.9791 2.2998V6.925H5.96875C5.87715 6.925 5.82656 7.03027 5.88262 7.10137L7.41387 9.04004ZM12.5039 8.56152H11.6836C11.6234 8.56152 11.5742 8.61074 11.5742 8.6709V10.7764H3.42578V8.6709C3.42578 8.61074 3.37656 8.56152 3.31641 8.56152H2.49609C2.43594 8.56152 2.38672 8.61074 2.38672 8.6709V11.3779C2.38672 11.6199 2.58223 11.8154 2.82422 11.8154H12.1758C12.4178 11.8154 12.6133 11.6199 12.6133 11.3779V8.6709C12.6133 8.61074 12.5641 8.56152 12.5039 8.56152Z" fill="#2F3755"/>
</svg>
