<svg width="154" height="48" viewBox="0 0 154 48" fill="none" xmlns="http://www.w3.org/2000/svg">
<path d="M12.9526 26.5071C17.9417 26.5071 21.7158 24.2323 21.7158 20.7167C21.7158 16.1153 17.1145 15.4432 13.1852 15.0555C10.5485 14.7711 7.75668 14.5902 7.75668 12.4705C7.75668 10.4024 9.9798 9.49768 13.3145 9.49768C15.5376 9.49768 17.8124 9.98884 19.8546 10.8419L20.9661 8.28272C18.7172 7.32627 15.9771 6.75756 13.3145 6.75756C8.48049 6.75756 4.86146 8.95483 4.86146 12.4705C4.86146 16.9167 9.43695 17.2786 13.1335 17.6922C16.158 18.0024 18.7947 18.3643 18.7947 20.7167C18.7947 22.4745 16.675 23.6378 12.9526 23.6378C10.3676 23.6378 7.93764 23.0691 5.66282 21.9575L4.47371 24.5167C7.08458 25.835 9.9281 26.5071 12.9526 26.5071ZM47.0112 26.4813C52.4397 26.4813 56.8084 22.0609 56.8084 16.5548C56.8084 10.997 52.3363 6.73171 47.0112 6.73171C41.5826 6.73171 37.1881 11.0487 37.1881 16.5548C37.1881 22.035 41.5826 26.4813 47.0112 26.4813ZM47.0112 23.6895C43.1595 23.6895 40.0316 20.4582 40.0316 16.5548C40.0058 12.6256 43.1595 9.52353 47.0112 9.52353C50.837 9.52353 53.9907 12.6256 53.9649 16.5548C53.9649 20.484 50.8629 23.6895 47.0112 23.6895ZM75.0986 23.3793V7.09361H72.2551V24.6976C72.2551 25.5248 72.953 26.2228 73.7802 26.2228H86.602V23.3793H75.0986ZM118.933 26.2228L111.1 7.71402C110.867 7.14531 110.376 6.80926 109.782 6.80926C109.187 6.80926 108.644 7.14531 108.412 7.71402L100.502 26.2228H103.681L109.756 12.0569L115.753 26.2228H118.933ZM146.649 26.2228H149.88L145.046 19.3466C147.786 18.7004 149.777 16.4255 149.777 13.4786C149.777 9.98884 146.959 7.09361 143.469 7.09361H135.663C134.835 7.09361 134.137 7.76572 134.137 8.59293V26.2228H136.981V19.5276H141.996L146.649 26.2228ZM136.981 9.93714H143.469C145.382 9.93714 146.933 11.5657 146.933 13.4786C146.933 15.3657 145.434 16.865 143.469 16.865H136.981V9.93714Z" fill="#2F3755"/>
<path d="M42.9808 45.6385H42.1452L44.562 39.0566H45.3847L47.8015 45.6385H46.9659L44.9991 40.0979H44.9477L42.9808 45.6385ZM43.2893 43.0675H46.6574V43.7745H43.2893V43.0675ZM60.0284 40.7021C59.9898 40.3764 59.8334 40.1236 59.5592 39.9436C59.2849 39.7636 58.9486 39.6737 58.55 39.6737C58.2587 39.6737 58.0037 39.7208 57.7851 39.8151C57.5687 39.9093 57.3995 40.039 57.2774 40.2039C57.1574 40.3689 57.0974 40.5564 57.0974 40.7664C57.0974 40.9421 57.1392 41.0931 57.2227 41.2195C57.3084 41.3438 57.4177 41.4477 57.5505 41.5313C57.6834 41.6127 57.8226 41.6802 57.9683 41.7337C58.114 41.7852 58.2479 41.8269 58.3701 41.8591L59.0385 42.039C59.2099 42.084 59.4006 42.1462 59.6106 42.2255C59.8227 42.3047 60.0252 42.4129 60.218 42.55C60.413 42.685 60.5737 42.8586 60.7001 43.0707C60.8265 43.2828 60.8897 43.5431 60.8897 43.8517C60.8897 44.2073 60.7965 44.5287 60.6101 44.8158C60.4259 45.1029 60.1559 45.3311 59.8002 45.5004C59.4467 45.6696 59.0171 45.7542 58.5115 45.7542C58.0401 45.7542 57.632 45.6782 57.287 45.5261C56.9442 45.3739 56.6742 45.1618 56.4771 44.8897C56.2821 44.6176 56.1718 44.3016 56.1461 43.9416H56.9688C56.9903 44.1902 57.0738 44.3959 57.2195 44.5587C57.3673 44.7194 57.5537 44.8394 57.7787 44.9186C58.0058 44.9958 58.2501 45.0343 58.5115 45.0343C58.8157 45.0343 59.0889 44.9851 59.331 44.8865C59.5731 44.7858 59.7649 44.6465 59.9063 44.4687C60.0477 44.2887 60.1184 44.0788 60.1184 43.8388C60.1184 43.6203 60.0573 43.4424 59.9352 43.3053C59.8131 43.1682 59.6524 43.0568 59.4531 42.9711C59.2539 42.8854 59.0385 42.8104 58.8071 42.7461L57.9973 42.5147C57.483 42.3669 57.076 42.1558 56.776 41.8816C56.476 41.6073 56.3261 41.2484 56.3261 40.8049C56.3261 40.4364 56.4257 40.115 56.6249 39.8408C56.8263 39.5644 57.0963 39.3501 57.4348 39.198C57.7755 39.0437 58.1558 38.9666 58.5757 38.9666C59 38.9666 59.3771 39.0427 59.707 39.1948C60.037 39.3448 60.2984 39.5505 60.4912 39.8119C60.6862 40.0732 60.789 40.37 60.7997 40.7021H60.0284ZM73.4018 40.7021C73.3632 40.3764 73.2068 40.1236 72.9326 39.9436C72.6583 39.7636 72.322 39.6737 71.9234 39.6737C71.6321 39.6737 71.3771 39.7208 71.1585 39.8151C70.9421 39.9093 70.7729 40.039 70.6508 40.2039C70.5308 40.3689 70.4708 40.5564 70.4708 40.7664C70.4708 40.9421 70.5126 41.0931 70.5961 41.2195C70.6818 41.3438 70.7911 41.4477 70.9239 41.5313C71.0568 41.6127 71.196 41.6802 71.3417 41.7337C71.4874 41.7852 71.6213 41.8269 71.7435 41.8591L72.4119 42.039C72.5833 42.084 72.774 42.1462 72.984 42.2255C73.1961 42.3047 73.3986 42.4129 73.5914 42.55C73.7864 42.685 73.9471 42.8586 74.0735 43.0707C74.1999 43.2828 74.2631 43.5431 74.2631 43.8517C74.2631 44.2073 74.1699 44.5287 73.9835 44.8158C73.7993 45.1029 73.5293 45.3311 73.1736 45.5004C72.8201 45.6696 72.3905 45.7542 71.8849 45.7542C71.4135 45.7542 71.0054 45.6782 70.6604 45.5261C70.3176 45.3739 70.0476 45.1618 69.8505 44.8897C69.6555 44.6176 69.5452 44.3016 69.5195 43.9416H70.3422C70.3637 44.1902 70.4472 44.3959 70.5929 44.5587C70.7407 44.7194 70.9271 44.8394 71.1521 44.9186C71.3792 44.9958 71.6235 45.0343 71.8849 45.0343C72.1891 45.0343 72.4623 44.9851 72.7044 44.8865C72.9465 44.7858 73.1383 44.6465 73.2797 44.4687C73.4211 44.2887 73.4918 44.0788 73.4918 43.8388C73.4918 43.6203 73.4307 43.4424 73.3086 43.3053C73.1865 43.1682 73.0258 43.0568 72.8265 42.9711C72.6273 42.8854 72.4119 42.8104 72.1805 42.7461L71.3707 42.5147C70.8564 42.3669 70.4494 42.1558 70.1494 41.8816C69.8494 41.6073 69.6995 41.2484 69.6995 40.8049C69.6995 40.4364 69.7991 40.115 69.9983 39.8408C70.1997 39.5644 70.4697 39.3501 70.8082 39.198C71.1489 39.0437 71.5292 38.9666 71.9491 38.9666C72.3734 38.9666 72.7505 39.0427 73.0804 39.1948C73.4104 39.3448 73.6718 39.5505 73.8646 39.8119C74.0596 40.0732 74.1624 40.37 74.1731 40.7021H73.4018ZM83.9727 39.0566V45.6385H83.1757V39.0566H83.9727ZM96.7725 40.7021C96.7339 40.3764 96.5775 40.1236 96.3032 39.9436C96.029 39.7636 95.6926 39.6737 95.2941 39.6737C95.0027 39.6737 94.7477 39.7208 94.5292 39.8151C94.3128 39.9093 94.1435 40.039 94.0214 40.2039C93.9014 40.3689 93.8414 40.5564 93.8414 40.7664C93.8414 40.9421 93.8832 41.0931 93.9668 41.2195C94.0525 41.3438 94.1618 41.4477 94.2946 41.5313C94.4274 41.6127 94.5667 41.6802 94.7124 41.7337C94.8581 41.7852 94.992 41.8269 95.1141 41.8591L95.7826 42.039C95.954 42.084 96.1447 42.1462 96.3547 42.2255C96.5668 42.3047 96.7693 42.4129 96.9621 42.55C97.1571 42.685 97.3177 42.8586 97.4442 43.0707C97.5706 43.2828 97.6338 43.5431 97.6338 43.8517C97.6338 44.2073 97.5406 44.5287 97.3542 44.8158C97.1699 45.1029 96.8999 45.3311 96.5443 45.5004C96.1908 45.6696 95.7612 45.7542 95.2555 45.7542C94.7842 45.7542 94.376 45.6782 94.0311 45.5261C93.6882 45.3739 93.4183 45.1618 93.2212 44.8897C93.0262 44.6176 92.9159 44.3016 92.8901 43.9416H93.7129C93.7343 44.1902 93.8179 44.3959 93.9636 44.5587C94.1114 44.7194 94.2978 44.8394 94.5228 44.9186C94.7499 44.9958 94.9941 45.0343 95.2555 45.0343C95.5598 45.0343 95.833 44.9851 96.0751 44.8865C96.3172 44.7858 96.5089 44.6465 96.6503 44.4687C96.7917 44.2887 96.8625 44.0788 96.8625 43.8388C96.8625 43.6203 96.8014 43.4424 96.6793 43.3053C96.5571 43.1682 96.3964 43.0568 96.1972 42.9711C95.9979 42.8854 95.7826 42.8104 95.5512 42.7461L94.7413 42.5147C94.2271 42.3669 93.82 42.1558 93.5201 41.8816C93.2201 41.6073 93.0701 41.2484 93.0701 40.8049C93.0701 40.4364 93.1697 40.115 93.369 39.8408C93.5704 39.5644 93.8404 39.3501 94.1789 39.198C94.5196 39.0437 94.8999 38.9666 95.3198 38.9666C95.744 38.9666 96.1211 39.0427 96.4511 39.1948C96.781 39.3448 97.0424 39.5505 97.2353 39.8119C97.4302 40.0732 97.5331 40.37 97.5438 40.7021H96.7725ZM106.186 39.7636V39.0566H111.123V39.7636H109.053V45.6385H108.256V39.7636H106.186Z" fill="#2F3755"/>
</svg>
